{"glyphs":{":":{"x_min":0,"x_max":281,"ha":281,"o":"m 141 479 q 163 479 179 463 q 195 447 195 424 q 195 401 179 385 q 163 370 141 370 q 118 370 102 385 q 86 401 86 424 q 86 447 102 463 q 118 479 141 479 z m 141 92 q 163 92 179 76 q 195 60 195 37 q 195 15 179 -1 q 163 -18 141 -18 q 118 -18 102 -1 q 86 15 86 37 q 86 60 102 76 q 118 92 141 92 z"},"$":{"x_min":0,"x_max":479,"ha":479,"o":"m 60 150 l 92 150 q 100 93 131 62 q 162 31 210 27 l 210 305 q 103 369 74 407 q 45 445 45 498 q 45 564 91 615 q 138 667 210 677 l 210 730 l 255 730 l 255 679 q 312 679 352 668 q 392 658 426 637 q 405 579 394 516 l 361 520 q 359 578 341 600 q 314 632 255 637 l 255 385 q 369 324 404 280 q 438 237 438 181 q 438 111 390 56 q 341 1 255 -16 l 255 -96 l 210 -96 l 210 -20 q 163 -19 125 -12 q 88 -6 36 12 q 47 57 51 80 q 55 103 60 150 z m 210 633 q 170 626 147 599 q 125 572 125 534 q 125 499 143 471 q 162 443 210 413 z m 255 30 q 302 39 327 70 q 352 101 352 147 q 352 190 329 221 q 305 253 255 279 z"},"?":{"x_min":0,"x_max":385,"ha":385,"o":"m 58 533 l 23 533 q 34 591 39 649 q 78 677 108 688 q 148 702 188 702 q 260 702 307 657 q 353 613 353 549 q 353 521 344 493 q 335 466 321 442 q 315 433 262 359 q 227 311 212 271 q 197 231 189 164 l 149 164 q 151 222 163 263 q 175 305 216 384 q 249 447 259 481 q 267 504 267 529 q 267 575 240 603 q 212 631 170 631 q 132 631 105 609 q 77 588 58 533 z m 171 92 q 194 92 210 76 q 226 60 226 37 q 226 15 210 -1 q 194 -17 171 -17 q 149 -17 133 -1 q 117 15 117 37 q 117 60 133 76 q 148 92 171 92 z"},"<":{"x_min":0,"x_max":667,"ha":667,"o":"m 68 353 l 599 576 l 599 506 l 154 324 l 599 141 l 599 72 l 68 295 z"},"'":{"x_min":0,"x_max":177,"ha":177,"o":"m 77 392 l 51 537 q 40 597 40 617 q 40 649 52 663 q 65 677 87 677 q 109 677 123 663 q 138 648 138 624 q 138 607 125 536 l 99 392 z"},"=":{"x_min":0,"x_max":667,"ha":667,"o":"m 68 467 l 599 467 l 599 403 l 68 403 z m 68 243 l 599 243 l 599 179 l 68 179 z"},"a":{"x_min":0,"x_max":490,"ha":490,"o":"m 99 326 l 67 330 q 77 380 81 431 q 176 474 253 474 q 286 474 313 464 q 340 455 355 438 q 371 421 379 397 q 387 374 387 323 l 383 121 q 383 80 392 67 q 401 55 416 55 q 434 55 471 81 l 486 61 q 417 0 411 -4 q 397 -12 377 -12 q 345 -12 328 4 q 311 20 305 57 q 246 12 218 0 q 189 -12 156 -12 q 102 -12 69 21 q 36 54 36 105 q 36 136 47 161 q 59 187 81 206 q 98 220 139 240 q 234 286 305 314 q 302 383 282 406 q 261 428 219 428 q 179 428 150 404 q 122 379 99 326 z m 305 272 q 177 215 151 189 q 124 163 124 126 q 124 89 144 67 q 164 45 191 45 q 219 45 251 64 q 284 82 294 105 q 305 128 305 188 z"},"L":{"x_min":0,"x_max":656,"ha":656,"o":"m 22 659 l 22 688 q 142 682 185 682 q 211 682 353 688 l 353 659 q 265 644 250 639 q 239 635 234 628 q 227 618 226 585 q 225 553 225 224 q 225 159 227 51 l 442 51 q 490 51 505 57 q 520 62 535 83 q 551 103 594 183 l 635 183 l 596 74 q 586 44 571 -5 q 369 0 219 0 q 113 0 22 -5 l 22 23 q 97 37 110 42 q 124 47 128 56 q 133 65 133 107 l 135 407 l 134 600 q 134 625 126 631 q 115 641 54 651 q 43 653 22 659 z"},"3":{"x_min":0,"x_max":510,"ha":510,"o":"m 122 542 l 89 542 q 105 595 115 650 q 150 675 187 687 q 223 699 260 699 q 306 699 342 681 q 378 663 397 629 q 415 596 415 560 q 415 473 320 405 q 373 391 402 360 q 449 312 449 232 q 449 128 372 54 q 294 -20 178 -20 q 114 -20 51 5 q 65 67 72 132 l 101 132 q 119 75 148 52 q 177 29 220 29 q 283 29 324 72 q 366 115 366 188 q 366 259 322 302 q 278 345 197 345 q 190 345 181 344 l 181 378 q 266 403 300 442 q 334 481 334 527 q 334 570 307 597 q 280 623 234 623 q 194 623 164 601 q 142 583 122 542 z"},";":{"x_min":0,"x_max":281,"ha":281,"o":"m 141 479 q 164 479 180 463 q 196 447 196 424 q 196 401 180 385 q 164 370 141 370 q 119 370 103 386 q 86 402 86 424 q 86 447 102 463 q 118 479 141 479 z m 84 5 l 69 23 q 102 61 127 104 q 163 92 184 64 q 205 36 205 2 q 205 -92 103 -182 l 82 -156 q 142 -95 142 -40 q 142 -19 129 -5 q 117 8 102 8 q 96 8 84 5 z"},"J":{"x_min":0,"x_max":438,"ha":438,"o":"m 431 688 l 431 659 q 417 656 409 654 q 341 644 331 635 q 321 627 319 602 q 317 577 317 323 q 317 186 315 160 q 310 103 287 65 q 264 27 222 3 q 179 -20 128 -20 q 89 -20 27 -5 q 36 74 35 169 l 74 169 q 79 87 102 58 q 125 30 160 30 q 204 30 217 74 q 225 102 225 347 q 225 589 224 608 q 222 626 216 632 q 205 642 139 653 q 130 655 113 659 l 113 688 q 221 682 277 682 q 341 682 431 688 z"},"V":{"x_min":0,"x_max":698,"ha":698,"o":"m 372 -20 l 339 -20 q 276 166 185 399 q 108 594 98 614 q 90 627 80 634 q 70 641 7 659 l 7 688 q 113 682 146 682 q 193 682 285 688 l 285 659 q 276 656 271 655 q 224 644 215 636 q 207 629 207 620 q 207 615 208 609 q 217 574 281 398 l 374 143 q 434 298 479 430 q 536 596 540 614 q 541 618 541 621 q 541 630 533 636 q 522 644 462 660 l 462 688 q 465 688 497 686 q 572 682 594 682 q 635 682 693 688 l 693 660 q 642 647 628 637 q 615 627 600 593 q 570 526 450 196 z"},"\"":{"x_min":0,"x_max":406,"ha":406,"o":"m 103 392 l 76 537 q 65 596 65 617 q 65 648 78 663 q 91 677 113 677 q 134 677 148 663 q 163 648 163 623 q 163 605 150 536 l 124 392 z m 281 392 l 255 535 l 244 594 q 243 606 243 618 q 243 649 257 663 q 270 677 293 677 q 314 677 328 663 q 342 649 342 624 q 342 583 333 535 l 305 392 z"},"7":{"x_min":0,"x_max":510,"ha":510,"o":"m 91 527 l 55 527 q 93 609 120 688 q 204 682 285 682 q 375 682 477 688 l 477 658 q 411 481 340 261 q 281 80 254 -20 q 225 -17 210 -17 q 196 -17 169 -20 l 160 -12 q 192 56 217 115 q 257 210 307 340 l 407 605 l 216 606 q 161 606 146 596 q 123 582 91 527 z"},"S":{"x_min":0,"x_max":552,"ha":552,"o":"m 465 501 l 428 501 q 416 563 399 592 q 383 621 350 637 q 317 654 276 654 q 218 654 184 622 q 149 589 149 543 q 149 503 178 473 q 206 442 314 396 q 422 350 461 300 q 500 250 500 188 q 500 133 470 85 q 441 37 383 9 q 325 -20 257 -20 q 211 -20 165 -11 q 119 -2 55 19 q 62 88 62 202 l 99 202 q 115 128 133 99 q 150 70 185 51 q 220 32 262 32 q 320 32 363 64 q 407 97 407 155 q 407 202 375 239 q 344 275 238 321 q 132 366 97 408 q 61 450 61 507 q 61 558 90 603 q 119 649 175 676 q 230 702 291 702 q 363 702 465 667 q 463 596 463 582 q 463 552 465 501 z"},"}":{"x_min":0,"x_max":479,"ha":479,"o":"m 86 677 l 86 694 q 168 684 219 628 q 270 573 270 505 q 270 472 259 425 q 248 378 248 354 q 248 317 277 287 q 307 256 359 250 l 359 229 q 307 223 277 192 q 248 162 248 125 q 248 101 259 54 q 270 7 270 -26 q 270 -94 219 -149 q 168 -205 86 -216 l 86 -199 q 144 -185 170 -154 q 197 -123 197 -83 q 197 -57 186 -10 q 174 38 174 70 q 174 120 211 167 q 247 213 319 238 q 249 264 211 312 q 174 359 174 409 q 174 440 186 488 q 197 536 197 562 q 197 602 170 632 q 144 663 86 677 z"},"Z":{"x_min":0,"x_max":656,"ha":656,"o":"m 121 502 l 86 502 q 96 565 102 688 q 300 682 354 682 q 483 682 618 688 l 618 658 q 571 598 533 548 q 495 498 400 365 l 250 159 q 201 91 172 50 l 470 50 q 521 50 539 67 q 557 84 583 156 q 587 166 595 186 l 630 186 l 608 71 l 595 -5 q 421 0 359 0 q 262 0 43 -5 l 43 27 q 105 106 151 168 q 227 269 490 632 l 242 632 q 187 632 167 616 q 147 600 129 529 q 126 520 121 502 z"},"x":{"x_min":0,"x_max":521,"ha":521,"o":"m 37 435 l 37 462 q 97 457 141 457 q 185 457 253 462 l 253 435 q 246 433 241 433 q 223 430 214 423 q 210 420 210 414 q 210 393 278 297 q 320 347 344 388 q 357 408 357 416 q 357 423 353 426 q 346 432 328 434 l 321 435 l 321 462 q 362 457 400 457 q 435 457 491 462 l 491 435 q 460 432 445 423 q 429 414 410 391 l 303 258 q 427 69 445 50 q 459 36 508 22 l 508 -5 q 442 0 399 0 q 353 0 294 -5 l 294 22 q 300 23 304 24 q 329 29 335 35 q 341 40 341 46 q 341 55 334 68 q 317 101 253 194 q 146 67 146 46 q 146 39 151 35 q 161 27 188 23 q 191 23 197 22 l 197 -5 q 140 0 106 0 q 70 0 12 -5 l 12 22 q 52 29 68 43 q 84 57 227 233 q 211 258 145 356 q 117 396 100 409 q 83 422 37 435 z"},")":{"x_min":0,"x_max":323,"ha":323,"o":"m 21 673 l 21 713 q 84 684 128 645 q 200 581 244 482 q 288 383 288 251 q 288 144 254 48 q 221 -48 151 -120 q 99 -174 21 -211 l 21 -170 q 68 -138 98 -97 q 140 -38 167 56 q 195 150 195 252 q 195 359 166 453 q 136 547 97 601 q 69 639 21 673 z"},"&":{"x_min":0,"x_max":781,"ha":781,"o":"m 501 413 l 501 441 q 571 436 618 436 q 667 436 724 441 l 724 413 q 667 404 645 385 q 623 367 574 275 q 539 209 490 149 q 537 104 567 87 q 597 70 624 70 q 648 70 675 80 q 702 90 743 117 l 766 89 q 684 20 653 3 q 623 -14 598 -14 q 522 -14 428 81 q 374 32 321 9 q 269 -14 207 -14 q 128 -14 79 35 q 29 84 29 156 q 29 217 71 270 q 113 323 234 386 q 209 441 199 477 q 190 513 190 546 q 190 605 244 654 q 298 702 377 702 q 435 702 467 671 q 500 641 500 591 q 500 477 332 396 q 359 339 384 298 q 409 258 460 184 q 505 240 526 292 q 547 344 547 373 q 547 384 539 393 q 530 403 501 413 z m 314 433 q 381 463 407 495 q 433 526 433 568 q 433 612 411 638 q 389 664 358 664 q 338 664 319 651 q 299 639 289 617 q 279 595 279 567 q 279 517 314 433 z m 250 350 q 202 322 179 301 q 149 273 135 244 q 121 214 121 182 q 121 127 159 89 q 198 50 254 50 q 327 50 397 115 q 315 220 250 350 z"},"_":{"x_min":0,"x_max":500,"ha":500,"o":"m -6 -75 l 506 -75 l 506 -125 l -6 -125 z"},"v":{"x_min":0,"x_max":500,"ha":500,"o":"m 7 435 l 7 462 q 67 457 109 457 q 149 457 226 462 l 226 435 q 218 433 214 433 q 183 427 176 421 q 169 416 169 407 l 169 402 q 170 398 176 381 q 204 300 217 267 l 275 120 q 291 159 340 288 q 371 368 374 382 q 377 396 377 406 q 377 415 373 419 q 367 426 350 431 q 345 432 336 435 l 336 462 l 355 460 q 410 457 435 457 q 459 457 499 462 l 499 435 q 452 420 440 401 q 424 375 272 -17 l 243 -17 q 119 300 82 379 q 69 406 56 416 q 47 423 7 435 z"},"O":{"x_min":0,"x_max":792,"ha":792,"o":"m 47 336 q 47 497 150 599 q 253 702 416 702 q 566 702 656 611 q 745 521 745 361 q 745 185 645 82 q 544 -20 380 -20 q 226 -20 136 73 q 47 166 47 336 z m 154 351 q 154 190 224 109 q 295 28 403 28 q 474 28 529 66 q 584 104 613 176 q 641 249 641 336 q 641 447 605 520 q 569 592 516 624 q 462 655 396 655 q 323 655 266 617 q 208 579 181 506 q 154 434 154 351 z"},"(":{"x_min":0,"x_max":323,"ha":323,"o":"m 302 -170 l 302 -211 q 238 -182 195 -143 q 123 -79 79 21 q 36 120 36 251 q 36 358 69 454 q 102 550 172 623 q 224 676 302 713 l 302 673 q 255 641 225 600 q 184 541 156 446 q 127 352 127 250 q 127 144 157 50 q 187 -44 226 -99 q 254 -136 302 -170 z"},"C":{"x_min":0,"x_max":719,"ha":719,"o":"m 667 113 l 688 76 q 609 27 537 3 q 464 -20 387 -20 q 289 -20 209 25 q 129 69 88 151 q 46 233 46 333 q 46 495 153 599 q 259 702 434 702 q 541 702 673 658 q 672 615 672 594 q 672 531 679 462 l 638 462 q 620 548 600 580 q 579 612 533 632 q 487 651 420 651 q 278 651 207 550 q 151 472 151 353 q 151 211 229 130 q 308 48 435 48 q 489 48 541 62 q 593 76 667 113 z"},"W":{"x_min":0,"x_max":1042,"ha":1042,"o":"m 367 -20 l 332 -20 q 251 212 158 469 q 111 596 98 617 q 91 628 81 636 q 64 646 9 659 l 9 688 q 122 682 153 682 q 194 682 286 688 l 286 659 q 228 644 218 636 q 208 628 208 617 q 208 607 229 546 q 319 270 370 140 l 504 500 q 471 589 460 609 q 448 629 436 637 q 424 644 367 659 l 367 688 q 458 682 507 682 q 560 682 644 688 l 644 659 l 626 654 q 585 646 574 637 q 566 631 566 618 q 566 613 567 608 q 570 595 622 447 l 727 148 q 760 241 808 386 l 880 608 q 882 615 882 621 q 882 629 876 634 q 871 638 804 659 l 804 688 q 895 682 922 682 q 956 682 1034 688 l 1034 659 q 979 644 965 633 q 956 626 948 609 q 936 581 834 295 q 831 288 727 -20 l 693 -20 l 573 314 q 557 359 530 427 q 465 260 367 -20 z"},"A":{"x_min":0,"x_max":771,"ha":771,"o":"m 366 699 l 397 699 q 463 530 559 315 l 673 66 q 681 53 690 47 q 696 42 762 23 l 762 -5 q 673 0 631 0 q 588 0 484 -5 l 484 23 q 543 36 553 43 q 563 50 563 60 q 563 70 553 95 l 504 214 q 400 215 353 215 l 218 214 l 167 90 q 155 61 155 53 q 155 47 161 43 q 167 39 218 28 q 223 26 233 23 l 233 -5 q 149 0 115 0 q 72 0 4 -5 l 4 23 q 48 33 65 45 q 77 55 90 77 q 118 125 232 388 z m 237 263 q 305 261 334 261 q 343 261 484 263 l 361 556 z"},"f":{"x_min":0,"x_max":302,"ha":302,"o":"m 25 -5 l 25 22 q 85 36 91 46 q 99 61 99 237 q 99 323 101 409 q 65 408 30 405 l 30 428 q 66 443 101 463 q 101 547 105 567 q 113 602 142 637 q 170 671 217 695 q 251 712 290 712 q 319 712 344 706 q 369 699 408 679 q 389 628 374 575 l 347 578 q 340 627 319 647 q 297 667 263 667 q 232 667 213 648 q 193 629 185 590 q 180 564 180 485 q 180 475 180 456 q 215 455 222 455 l 305 456 l 311 450 q 296 429 286 405 q 232 408 180 409 q 179 339 179 228 l 180 100 l 180 94 q 180 56 188 47 q 196 38 251 26 q 257 24 268 22 l 268 -5 q 202 0 154 0 q 113 0 25 -5 z"},"Q":{"x_min":0,"x_max":792,"ha":792,"o":"m 152 60 q 105 99 76 170 q 46 241 46 331 q 46 497 149 600 q 251 702 414 702 q 511 702 586 664 q 662 625 704 546 q 747 466 747 359 q 747 193 650 90 q 554 -12 412 -12 q 370 -12 312 0 l 476 -65 q 536 -87 582 -97 q 628 -107 664 -107 q 715 -107 798 -82 l 812 -110 q 721 -159 691 -171 q 661 -183 641 -183 q 595 -183 547 -165 q 463 -133 330 -54 q 254 -8 209 8 q 165 24 90 34 l 90 72 q 119 68 152 60 z m 154 356 q 154 193 230 103 q 294 28 399 28 q 475 28 531 66 q 587 104 615 177 q 643 251 643 337 q 643 432 610 508 q 578 584 521 619 q 463 654 396 654 q 329 654 274 621 q 218 588 186 516 q 154 443 154 356 z"},"w":{"x_min":0,"x_max":760,"ha":760,"o":"m 6 435 l 6 462 q 71 457 113 457 q 154 457 226 462 l 226 435 q 182 426 174 420 q 168 416 168 404 q 168 399 169 394 q 174 375 206 287 l 270 115 q 277 132 370 350 q 350 402 338 413 q 327 424 285 435 l 285 462 q 367 457 398 457 q 431 457 505 462 l 505 435 q 467 429 454 419 q 446 414 446 404 q 446 396 448 387 q 454 366 482 288 q 523 177 543 128 q 635 382 635 403 q 635 414 628 421 q 622 427 594 435 l 594 462 q 649 457 676 457 q 699 457 757 462 l 757 435 q 726 427 713 417 q 701 408 693 394 q 685 379 639 255 l 540 -17 l 510 -17 l 394 292 l 266 -17 l 234 -17 l 149 208 q 83 376 75 391 q 67 405 57 414 q 42 424 6 435 z"},"-":{"x_min":0,"x_max":292,"ha":292,"o":"m 263 269 l 269 263 q 254 226 245 188 q 189 190 150 190 q 113 190 33 188 l 27 194 q 38 228 46 263 q 109 262 140 262 q 210 262 263 269 z"},"E":{"x_min":0,"x_max":667,"ha":667,"o":"m 223 382 l 341 382 q 409 382 421 385 q 434 389 441 400 q 449 412 460 465 q 461 471 464 482 l 497 482 q 491 401 491 358 q 491 313 497 235 l 464 235 q 450 306 447 314 q 442 326 430 331 q 417 336 357 336 l 223 336 l 226 49 l 430 49 l 448 49 q 490 49 501 53 q 520 59 534 74 q 548 89 586 158 q 590 165 598 178 l 631 178 q 625 163 571 -5 q 393 0 246 0 q 144 0 20 -5 l 20 23 l 99 41 q 118 46 122 51 q 129 61 129 90 l 129 99 l 132 213 q 132 247 132 344 q 132 485 131 551 q 130 616 126 625 q 124 631 117 635 q 111 638 72 647 l 20 659 l 20 688 q 111 682 239 682 q 309 682 571 688 q 572 603 583 521 l 548 521 q 529 587 517 609 q 508 624 496 629 q 480 635 425 635 l 228 635 l 224 478 z"},"s":{"x_min":0,"x_max":385,"ha":385,"o":"m 322 341 l 288 344 q 285 387 258 412 q 230 437 190 437 q 155 437 134 418 q 113 399 113 375 q 113 353 129 334 q 152 309 226 272 q 300 236 326 204 q 352 171 352 129 q 352 70 304 26 q 256 -17 173 -17 q 113 -17 40 10 q 48 79 48 136 l 82 136 q 96 78 125 53 q 154 28 196 28 q 234 28 255 48 q 276 67 276 97 q 276 125 256 150 q 235 174 163 210 q 90 247 66 276 q 42 305 42 342 q 42 395 90 437 q 137 479 216 479 q 271 479 335 453 q 329 413 322 341 z"},">":{"x_min":0,"x_max":667,"ha":667,"o":"m 598 294 l 68 72 l 68 141 l 512 324 l 68 506 l 68 576 l 599 352 z"},"l":{"x_min":0,"x_max":271,"ha":271,"o":"m 15 622 l 15 648 q 102 676 172 712 l 185 704 q 173 612 173 362 q 173 110 175 84 q 177 57 186 48 q 195 39 257 22 l 257 -5 q 178 0 135 0 q 88 0 15 -5 l 15 22 q 81 42 87 48 q 93 54 94 77 q 96 106 96 346 l 95 578 l 95 584 q 95 611 87 620 q 80 628 64 628 q 51 628 15 622 z"},"8":{"x_min":0,"x_max":510,"ha":510,"o":"m 198 348 q 116 409 92 445 q 68 481 68 526 q 68 596 125 647 q 182 699 274 699 q 358 699 403 659 q 448 618 448 558 q 448 510 418 468 q 389 426 313 376 q 376 332 405 306 q 434 279 448 249 q 463 219 463 178 q 463 97 402 38 q 341 -20 242 -20 q 151 -20 101 27 q 51 73 51 144 q 51 197 79 240 q 107 283 198 348 z m 278 403 q 333 440 355 474 q 377 508 377 547 q 377 596 345 628 q 313 659 262 659 q 211 659 180 631 q 150 602 150 560 q 150 531 160 510 q 170 489 196 465 q 222 441 278 403 z m 235 323 q 183 285 157 242 q 132 200 132 155 q 132 101 170 63 q 208 25 263 25 q 313 25 346 59 q 379 92 379 142 q 379 173 365 202 q 350 231 314 264 q 290 287 235 323 z"},"\\":{"x_min":0,"x_max":531,"ha":531,"o":"m 123 696 l 475 -18 l 408 -18 l 57 696 z"},"e":{"x_min":0,"x_max":458,"ha":458,"o":"m 413 113 l 431 84 l 334 12 q 314 -1 292 -8 q 261 -17 229 -17 q 149 -17 93 47 q 36 111 36 220 q 36 337 104 408 q 171 479 269 479 q 345 479 386 437 q 427 395 428 309 q 408 297 391 280 q 356 281 347 281 q 218 281 122 277 q 122 167 159 111 q 197 55 260 55 q 292 55 326 67 q 361 80 413 113 z m 341 327 q 338 375 320 400 q 292 437 246 437 q 206 437 175 409 q 144 381 128 318 q 146 317 156 317 q 236 317 341 327 z"},"b":{"x_min":0,"x_max":510,"ha":510,"o":"m -12 620 l -12 647 q 83 677 148 712 l 161 701 q 147 605 147 413 l 148 372 q 221 448 243 461 q 265 473 305 473 q 351 473 392 451 q 432 428 454 381 q 476 334 476 271 q 476 149 394 66 q 312 -17 198 -17 q 134 -17 64 17 q 72 183 72 450 l 71 549 l 71 572 q 71 605 63 616 q 56 626 42 626 q 27 626 -12 620 z m 148 62 q 194 35 241 35 q 307 35 348 83 q 390 131 390 229 q 390 314 356 357 q 321 399 273 399 q 243 399 217 384 q 190 368 173 342 q 155 315 150 291 q 148 276 148 214 z"},"%":{"x_min":0,"x_max":823,"ha":823,"o":"m 37 496 q 37 603 79 653 q 121 702 187 702 q 252 702 286 656 q 319 609 319 522 q 319 417 278 368 q 237 320 174 320 q 113 320 75 363 q 37 406 37 496 z m 113 500 q 113 413 136 378 q 151 355 180 355 q 207 355 222 379 q 245 414 245 507 q 245 603 220 643 q 205 667 178 667 q 151 667 136 643 q 113 606 113 500 z m 590 702 l 644 702 l 229 -38 l 177 -38 z m 503 138 q 503 245 546 295 q 588 344 653 344 q 719 344 753 298 q 787 251 787 165 q 787 59 745 10 q 704 -38 641 -38 q 580 -38 542 5 q 503 48 503 138 z m 580 143 q 580 55 603 21 q 619 -3 647 -3 q 673 -3 689 21 q 712 56 712 149 q 712 245 687 285 q 671 309 645 309 q 618 309 603 285 q 580 248 580 143 z"},"m":{"x_min":0,"x_max":844,"ha":844,"o":"m 21 384 l 21 412 q 112 437 176 474 l 188 463 q 181 424 180 379 l 250 445 q 264 457 283 464 q 309 474 338 474 q 393 474 429 444 q 455 423 465 379 q 520 440 544 454 q 582 474 626 474 q 663 474 693 458 q 723 443 736 423 q 750 402 753 380 q 757 357 757 305 l 756 171 q 756 71 760 55 q 763 44 771 39 q 778 34 835 22 l 835 -5 q 774 0 731 0 q 693 0 600 -5 l 600 22 q 609 25 614 26 q 658 39 664 46 q 671 53 673 87 q 678 155 678 241 q 678 324 671 350 q 664 375 643 390 q 622 405 592 405 q 550 405 517 380 q 484 354 474 315 q 468 294 468 183 q 468 57 476 45 q 483 33 547 22 l 547 -5 q 483 0 431 0 q 377 0 312 -5 l 312 22 l 325 25 q 371 38 377 47 q 388 63 388 138 l 391 283 q 391 353 369 379 q 346 406 305 406 q 270 406 238 385 q 206 365 190 330 q 179 304 179 240 l 180 155 q 180 60 187 49 q 193 38 245 26 q 250 25 261 22 l 261 -5 q 203 0 156 0 q 112 0 28 -5 l 28 22 q 86 34 93 42 q 102 53 102 114 l 102 127 l 104 271 q 104 364 96 377 q 89 390 70 390 q 56 390 21 384 z"},"#":{"x_min":0,"x_max":667,"ha":667,"o":"m 43 475 l 202 475 l 244 672 l 304 672 l 262 475 l 467 475 l 509 672 l 569 672 l 527 475 l 623 475 l 623 415 l 515 415 l 478 234 l 623 234 l 623 174 l 466 174 l 424 -22 l 364 -22 l 406 174 l 200 174 l 158 -22 l 98 -22 l 140 174 l 43 174 l 43 234 l 152 234 l 190 415 l 43 415 z m 250 415 l 212 234 l 418 234 l 455 415 z"},",":{"x_min":0,"x_max":281,"ha":281,"o":"m 85 5 l 70 23 q 103 61 128 104 q 164 92 185 64 q 206 36 206 2 q 206 -92 104 -182 l 83 -156 q 143 -95 143 -40 q 143 -19 130 -5 q 118 8 103 8 q 97 8 85 5 z"},"n":{"x_min":0,"x_max":552,"ha":552,"o":"m 14 383 l 14 412 q 102 432 173 474 l 186 465 q 179 424 178 380 l 240 441 q 255 455 276 463 q 305 474 336 474 q 406 474 442 427 q 466 396 466 321 l 464 203 q 464 84 467 63 q 470 48 477 42 q 483 37 523 27 q 530 25 545 22 l 545 -5 q 487 0 442 0 q 403 0 309 -5 l 309 22 q 365 39 372 44 q 379 50 381 63 q 386 112 386 211 q 386 318 382 340 q 375 372 353 390 q 331 407 300 407 q 268 407 237 388 q 206 370 191 338 q 176 306 176 244 q 176 68 183 54 q 190 40 240 27 q 247 25 259 22 l 259 -5 q 193 0 149 0 q 106 0 21 -5 l 21 22 q 79 36 86 42 q 91 46 93 62 q 99 109 99 189 q 99 354 95 369 q 90 389 66 389 q 56 389 33 386 q 26 385 14 383 z"},"h":{"x_min":0,"x_max":552,"ha":552,"o":"m 13 623 l 13 651 q 78 670 108 682 q 139 694 170 712 l 182 705 q 178 667 176 604 q 171 473 171 424 q 171 410 172 375 l 236 438 q 254 453 274 460 q 302 470 333 470 q 389 470 422 442 q 455 414 461 363 q 464 334 464 91 q 464 54 472 45 q 479 36 526 25 q 532 24 542 22 l 542 -5 q 454 0 417 0 q 370 0 305 -5 l 305 22 l 364 40 q 370 42 374 48 q 378 53 380 65 q 382 75 382 118 l 386 259 q 386 327 377 350 q 369 374 347 388 q 326 402 299 402 q 262 402 230 381 q 198 359 185 326 q 173 293 173 213 q 173 103 177 72 q 180 51 187 45 q 193 39 238 27 q 244 25 255 22 l 255 -5 q 183 0 137 0 q 89 0 19 -5 l 19 22 q 29 25 35 26 q 79 38 85 44 q 91 51 93 88 q 96 149 96 325 q 96 596 89 612 q 83 627 60 627 q 46 627 13 623 z"},"z":{"x_min":0,"x_max":479,"ha":479,"o":"m 93 319 l 62 319 q 67 371 69 462 q 161 457 262 457 q 362 457 444 462 l 444 429 q 207 133 145 45 l 334 49 q 360 51 372 63 q 383 75 396 135 q 397 140 400 151 l 435 151 l 430 81 l 428 -5 q 335 0 264 0 q 215 0 30 -5 l 30 22 l 112 126 l 333 412 l 209 409 q 156 408 143 404 q 129 400 121 391 q 112 381 98 334 q 97 329 93 319 z"},"B":{"x_min":0,"x_max":646,"ha":646,"o":"m 24 659 l 24 688 q 114 682 189 682 q 239 682 292 684 q 346 686 375 686 q 475 686 524 644 q 572 602 572 536 q 572 499 554 462 q 536 425 502 400 q 478 382 428 366 q 481 362 509 351 q 552 333 578 298 q 603 262 603 209 q 603 101 501 38 q 433 -5 297 -5 q 266 -5 201 -2 q 155 0 150 0 q 142 0 24 -5 l 24 23 q 40 27 47 28 q 118 42 126 49 q 132 54 133 74 q 137 119 137 331 l 136 547 q 136 614 130 626 q 127 632 120 635 q 112 639 45 654 q 38 655 24 659 z m 227 380 q 271 379 275 379 q 357 379 396 393 q 434 407 457 441 q 480 476 480 521 q 480 586 434 619 q 401 642 326 642 q 283 642 232 635 q 226 561 226 433 q 226 415 227 380 z m 227 47 q 279 40 320 40 q 413 40 458 83 q 504 125 504 200 q 504 252 479 284 q 453 316 417 328 q 381 339 303 339 q 257 339 227 338 z"},"K":{"x_min":0,"x_max":771,"ha":771,"o":"m 16 659 l 16 688 q 120 682 167 682 q 184 682 198 683 l 333 688 l 333 659 l 312 654 q 244 641 237 636 q 229 632 227 623 q 225 617 223 523 l 221 349 q 346 451 475 583 q 507 616 507 630 q 507 637 501 641 q 494 646 450 656 q 446 657 439 659 l 439 688 q 508 682 559 682 q 597 682 705 688 l 705 659 q 638 643 624 637 q 610 631 600 623 l 514 542 l 381 421 l 321 368 q 369 318 479 213 l 636 69 q 651 57 669 50 q 687 43 776 23 l 776 -5 q 665 0 621 0 q 584 0 451 -5 l 451 23 q 497 34 504 39 q 510 43 510 49 q 510 56 501 66 q 465 107 292 271 l 221 341 l 222 90 q 222 62 226 55 q 230 47 244 42 q 254 39 333 23 l 333 -5 q 250 0 183 0 q 119 0 16 -5 l 16 23 q 32 27 40 28 q 106 38 117 48 q 125 55 126 84 q 129 171 129 317 l 127 583 q 127 619 125 624 q 123 630 118 633 q 102 644 38 654 q 30 655 16 659 z"},"R":{"x_min":0,"x_max":719,"ha":719,"o":"m 19 659 l 19 688 q 148 682 227 682 q 271 682 311 683 q 362 685 382 685 q 478 685 526 640 q 574 595 574 518 q 574 466 552 426 q 530 386 489 359 q 459 339 404 324 l 567 112 q 597 73 605 66 q 617 56 637 48 q 664 38 729 23 l 729 -5 q 652 0 617 0 q 576 0 534 -5 q 512 31 474 87 q 437 142 428 152 q 423 158 419 165 l 312 312 q 268 313 224 318 l 228 72 q 229 58 236 50 q 248 41 310 29 q 318 28 336 23 l 336 -5 q 248 0 181 0 q 108 0 19 -5 l 19 23 l 40 28 q 110 41 119 50 q 129 58 130 80 q 131 94 133 331 l 131 561 q 130 613 128 621 q 126 629 119 633 q 95 646 43 654 q 35 655 19 659 z m 224 360 q 274 354 302 354 q 391 354 434 394 q 477 434 477 504 q 477 565 439 601 q 401 637 329 637 q 303 637 227 631 z"},"T":{"x_min":0,"x_max":656,"ha":656,"o":"m 58 497 l 21 497 q 30 582 37 688 q 253 682 346 682 q 422 682 625 688 q 631 579 640 497 l 603 497 q 580 586 573 602 q 566 617 553 624 q 541 630 488 630 l 379 630 q 375 500 375 309 q 375 131 379 69 q 380 54 387 49 q 395 42 467 28 q 474 27 488 23 l 488 -5 q 391 0 315 0 q 244 0 168 -5 l 168 23 q 186 28 194 29 q 261 41 271 48 q 276 52 278 59 q 280 66 282 167 q 284 324 284 399 q 284 530 282 630 l 166 630 l 145 630 q 117 630 108 624 q 94 616 83 589 q 75 568 58 497 z"},"P":{"x_min":0,"x_max":615,"ha":615,"o":"m 21 659 l 21 688 q 84 682 183 682 l 375 684 q 483 684 532 639 q 582 593 582 514 q 582 423 515 361 q 449 299 333 299 q 288 299 226 312 q 226 236 226 203 q 226 79 230 59 q 232 51 240 46 q 253 39 332 27 q 338 26 351 23 l 351 -5 q 258 0 178 0 q 102 0 21 -5 l 21 23 q 41 28 50 30 q 114 43 122 49 q 134 60 134 106 l 135 342 l 135 579 l 135 589 q 135 621 125 629 q 116 638 46 653 q 38 655 21 659 z m 227 353 q 278 341 315 341 q 396 341 439 383 q 483 425 483 495 q 483 563 443 601 q 402 639 319 639 q 283 639 231 631 q 227 484 227 353 z"},"|":{"x_min":0,"x_max":531,"ha":531,"o":"m 233 696 l 298 696 l 298 -135 l 233 -135 z"},"t":{"x_min":0,"x_max":302,"ha":302,"o":"m 144 581 l 172 581 l 161 457 l 296 458 l 300 450 q 288 430 277 407 q 220 410 161 411 l 156 160 l 156 157 q 156 99 169 73 q 182 48 213 48 q 239 48 282 70 l 296 42 q 243 9 215 -2 q 187 -12 167 -12 q 134 -12 112 5 q 89 21 82 51 q 78 68 78 153 q 78 244 83 411 q 49 410 12 407 l 12 434 q 53 452 83 484 q 113 517 144 581 z"},"M":{"x_min":0,"x_max":969,"ha":969,"o":"m 4 659 l 4 688 q 85 682 128 682 q 176 682 232 688 q 252 636 264 609 q 280 573 392 335 q 439 234 487 138 l 696 577 q 715 617 741 688 q 807 682 841 682 q 874 682 950 688 l 950 659 q 936 655 928 653 q 860 640 853 633 q 840 624 840 584 l 840 578 l 838 423 q 838 131 840 68 q 841 55 848 49 q 855 42 931 28 q 938 27 950 23 l 950 -5 q 862 0 795 0 q 727 0 634 -5 l 634 23 q 653 28 663 30 q 722 42 731 46 q 739 51 742 59 q 747 73 747 138 l 747 564 q 702 477 546 141 q 503 49 482 0 l 455 0 q 345 243 187 564 l 193 109 q 193 55 202 47 q 210 40 275 28 q 283 27 298 23 l 298 -5 q 213 0 161 0 q 109 0 23 -5 l 23 23 q 37 27 44 28 q 108 41 116 50 q 128 64 128 117 l 131 227 q 133 377 133 519 l 133 578 q 133 614 128 623 q 124 632 114 636 q 96 643 31 653 q 22 654 4 659 z"},"g":{"x_min":0,"x_max":490,"ha":490,"o":"m 484 459 l 488 453 q 477 431 466 407 q 430 411 391 412 q 422 362 422 314 q 422 244 371 196 q 320 149 228 149 q 203 149 175 154 q 139 120 139 104 q 139 91 151 84 q 172 73 259 73 l 345 75 q 421 75 450 49 q 479 24 479 -26 q 479 -97 419 -143 q 332 -210 196 -210 q 101 -210 56 -176 q 12 -143 12 -102 q 12 -82 20 -68 q 23 -62 43 -49 l 121 6 q 86 13 70 31 q 53 50 53 73 q 53 88 62 96 q 88 115 142 165 q 100 186 79 220 q 59 254 59 300 q 59 375 111 424 q 164 474 254 474 q 276 474 299 469 q 322 465 348 457 q 374 457 389 457 q 456 457 484 459 z m 145 322 q 145 252 173 217 q 202 183 243 183 q 281 183 307 212 q 332 242 332 300 q 332 372 305 405 q 278 438 236 438 q 197 438 171 409 q 145 379 145 322 z m 165 4 q 126 -29 112 -51 q 97 -72 97 -90 q 97 -116 124 -136 q 161 -163 228 -163 q 304 -163 354 -134 q 403 -105 403 -56 q 403 -27 384 -11 q 364 5 309 5 l 288 4 z"},"j":{"x_min":0,"x_max":260,"ha":260,"o":"m 140 711 q 161 711 176 696 q 191 681 191 660 q 191 639 176 624 q 161 608 140 608 q 119 608 104 624 q 88 639 88 660 q 88 681 104 696 q 119 711 140 711 z m 12 388 l 12 416 q 56 427 90 440 q 124 454 169 479 l 183 467 q 174 354 174 234 l 175 39 q 175 -59 154 -106 q 132 -153 86 -182 q 40 -210 -6 -210 q -35 -210 -68 -195 q -57 -145 -53 -88 l -22 -90 q -15 -136 -2 -149 q 11 -163 31 -163 q 57 -163 73 -142 q 89 -121 94 -45 q 96 -10 96 212 l 94 347 q 94 376 87 384 q 80 393 62 393 q 53 393 28 390 q 23 389 12 388 z"},"i":{"x_min":0,"x_max":281,"ha":281,"o":"m 149 713 q 170 713 185 698 q 200 684 200 662 q 200 641 185 626 q 170 611 149 611 q 128 611 113 626 q 98 641 98 662 q 98 684 113 698 q 128 713 149 713 z m 27 389 l 27 416 q 109 437 182 479 l 194 468 q 185 365 185 175 q 185 86 189 65 q 192 52 199 46 q 207 40 250 27 q 255 25 266 22 l 266 -5 q 202 0 161 0 q 136 0 27 -5 l 27 22 q 93 38 102 52 q 110 65 110 192 l 109 296 l 109 316 q 109 371 102 382 q 95 393 79 393 q 68 393 27 389 z"},"y":{"x_min":0,"x_max":510,"ha":510,"o":"m 7 435 l 7 462 q 83 457 117 457 q 143 457 227 462 l 227 435 q 184 427 174 419 q 167 415 167 407 q 167 397 183 358 q 235 227 286 124 l 337 270 q 380 386 380 405 q 380 414 376 418 q 370 425 352 430 q 347 432 338 435 l 338 462 q 400 457 428 457 q 461 457 502 462 l 502 435 q 464 425 451 411 q 438 397 401 300 l 306 46 q 264 -72 243 -110 q 215 -161 179 -186 q 144 -210 111 -210 q 94 -210 66 -204 q 59 -174 53 -161 q 48 -147 34 -121 l 52 -107 q 89 -140 125 -140 q 160 -140 185 -115 q 219 -81 245 10 l 150 228 q 105 332 73 391 q 62 409 54 416 q 42 425 7 435 z"},"@":{"x_min":0,"x_max":917,"ha":917,"o":"m 688 468 l 630 273 q 585 118 585 88 q 585 72 595 61 q 606 50 622 50 q 657 50 707 86 q 757 122 793 202 q 829 282 829 369 q 829 452 789 523 q 749 594 675 632 q 601 669 512 669 q 399 669 303 610 q 206 550 150 438 q 93 325 93 204 q 93 92 143 0 q 192 -92 282 -139 q 372 -186 476 -186 q 604 -186 708 -117 q 812 -48 868 84 l 896 84 q 853 -50 737 -133 q 621 -216 473 -216 q 291 -216 169 -93 q 47 30 47 217 q 47 346 108 457 q 168 569 278 632 q 387 694 509 694 q 610 694 692 653 q 773 611 815 531 q 858 450 858 360 q 858 271 818 183 q 778 95 717 55 q 655 15 589 15 q 551 15 532 33 q 514 50 514 83 q 514 109 522 154 q 456 73 412 44 q 368 15 331 15 q 295 15 269 46 q 242 77 242 129 q 242 199 288 287 q 334 375 410 430 q 466 471 511 471 q 543 471 565 454 q 587 437 595 403 l 611 457 z m 516 448 q 480 448 442 410 q 388 354 348 256 q 319 186 319 145 q 319 112 336 93 q 354 74 375 74 q 403 74 435 95 q 466 117 500 162 q 535 207 550 253 q 577 329 577 376 q 577 410 560 429 q 542 448 516 448 z"},".":{"x_min":0,"x_max":281,"ha":281,"o":"m 141 92 q 163 92 179 76 q 195 60 195 37 q 195 15 179 -1 q 163 -18 141 -18 q 118 -18 102 -1 q 86 15 86 37 q 86 60 102 76 q 118 92 141 92 z"},"p":{"x_min":0,"x_max":531,"ha":531,"o":"m 6 384 l 6 411 q 107 440 160 473 l 176 463 q 169 420 167 370 q 229 440 260 459 q 284 474 321 474 q 398 474 448 420 q 498 366 498 266 q 498 186 464 124 q 431 63 370 24 q 309 -14 252 -14 q 234 -14 213 -9 q 191 -3 166 7 q 167 -123 170 -146 q 172 -159 180 -165 q 187 -171 236 -183 q 243 -184 256 -188 l 256 -215 q 181 -209 138 -209 q 103 -209 3 -215 l 3 -188 l 27 -182 q 69 -173 78 -163 q 86 -153 88 -124 q 89 -104 89 102 l 87 304 l 88 320 q 88 369 81 381 q 76 388 63 388 q 49 388 6 384 z m 165 83 q 191 60 219 48 q 248 36 277 36 q 332 36 373 84 q 414 131 414 219 q 414 310 373 361 q 342 400 292 400 q 260 400 229 381 q 197 361 182 330 q 167 299 166 252 z"},"X":{"x_min":0,"x_max":750,"ha":750,"o":"m 30 659 l 30 688 q 106 682 170 682 q 235 682 333 688 l 333 659 q 273 646 261 637 q 255 633 255 627 q 255 619 271 593 q 340 481 388 415 q 467 521 528 612 q 539 628 539 633 q 539 638 532 642 q 526 646 469 659 l 469 688 q 551 682 597 682 q 648 682 715 688 l 715 659 q 654 646 632 633 q 611 620 565 562 q 476 449 419 369 q 461 302 529 207 l 629 64 q 637 56 649 49 q 667 39 726 23 l 726 -5 q 639 0 587 0 q 538 0 435 -5 l 435 23 q 499 41 504 44 q 509 48 509 56 q 509 67 496 89 q 426 203 363 292 q 304 219 216 90 q 198 63 198 56 q 198 48 205 42 q 212 37 256 27 q 261 26 271 23 l 271 -5 q 199 0 133 0 q 73 0 22 -5 l 22 23 q 78 35 98 49 q 119 63 178 137 q 285 271 333 338 q 285 411 181 556 q 140 614 122 626 q 104 639 30 659 z"},"*":{"x_min":0,"x_max":469,"ha":469,"o":"m 187 712 l 278 712 q 257 591 251 534 l 373 598 q 386 604 409 618 l 438 530 q 376 523 263 504 l 323 441 l 388 380 l 312 326 l 262 431 q 249 457 232 485 q 202 429 178 378 l 152 326 l 76 380 l 204 504 q 154 515 128 520 l 29 534 l 58 621 q 120 583 215 540 l 205 610 z"},"Y":{"x_min":0,"x_max":750,"ha":750,"o":"m 219 -5 l 219 23 q 236 27 244 28 q 305 38 317 48 q 325 54 329 77 q 333 101 333 215 l 332 280 q 291 346 196 486 l 107 615 q 98 626 83 634 q 62 646 11 659 l 11 688 q 88 682 148 682 q 207 682 292 688 l 292 659 q 236 645 227 638 q 219 632 219 625 q 219 619 227 604 q 271 528 394 339 q 456 437 555 606 q 565 623 565 629 q 565 636 560 640 q 544 649 491 659 l 491 688 q 581 682 621 682 q 670 682 741 688 l 741 659 q 681 647 656 631 q 631 615 597 564 q 523 454 421 291 q 420 267 420 262 q 420 92 422 75 q 424 58 433 50 q 447 39 515 27 q 521 26 532 23 l 532 -5 q 441 0 385 0 q 340 0 219 -5 z"},"c":{"x_min":0,"x_max":448,"ha":448,"o":"m 400 310 l 367 312 q 365 374 336 403 q 307 433 257 433 q 221 433 188 413 q 154 393 135 348 q 117 304 117 247 q 117 156 161 105 q 205 54 263 54 q 324 54 410 103 l 428 73 q 352 17 301 -6 q 276 -17 241 -17 q 156 -17 103 33 q 33 99 33 211 q 33 328 106 403 q 180 479 287 479 q 360 479 428 441 q 425 424 418 398 q 410 363 400 310 z"},"!":{"x_min":0,"x_max":281,"ha":281,"o":"m 159 179 l 122 179 q 112 401 91 659 q 143 677 190 702 l 205 690 q 180 507 159 179 z m 141 91 q 164 91 179 75 q 195 60 195 37 q 195 14 179 -2 q 163 -18 141 -18 q 118 -18 102 -2 q 86 14 86 37 q 86 60 102 75 q 118 91 141 91 z"},"/":{"x_min":0,"x_max":531,"ha":531,"o":"m 407 696 l 474 696 l 124 -18 l 57 -18 z"},"[":{"x_min":0,"x_max":323,"ha":323,"o":"m 294 707 l 294 660 l 179 660 l 179 -157 l 294 -157 l 294 -204 q 235 -201 201 -201 q 168 -201 99 -204 q 102 -10 102 254 q 102 500 99 707 q 171 703 200 703 q 232 703 294 707 z"},"6":{"x_min":0,"x_max":510,"ha":510,"o":"m 417 702 l 428 663 q 337 625 280 580 q 223 536 188 478 q 163 439 144 371 q 218 427 240 438 q 262 448 291 448 q 372 448 424 392 q 475 335 475 239 q 475 142 416 61 q 356 -20 249 -20 q 156 -20 94 50 q 31 121 31 243 q 31 386 115 505 q 210 640 417 702 z m 391 192 q 391 224 377 273 q 362 322 330 351 q 298 379 255 379 q 221 379 190 360 q 159 340 146 312 q 132 284 132 239 q 132 133 182 70 q 220 21 271 21 q 330 21 361 72 q 391 123 391 192 z"},"r":{"x_min":0,"x_max":354,"ha":354,"o":"m 16 383 l 16 411 q 107 434 171 474 l 184 464 q 176 417 175 361 q 234 433 257 449 q 281 465 312 465 q 333 465 359 455 q 349 405 342 353 l 317 353 q 313 376 303 387 q 292 397 280 397 q 260 397 238 379 q 205 353 190 318 q 175 283 175 219 q 175 105 181 66 q 184 52 195 43 q 206 35 264 22 l 264 -5 q 203 0 153 0 q 111 0 16 -5 l 16 22 q 83 39 91 48 q 100 57 100 96 l 101 202 q 101 358 98 370 q 93 389 70 389 q 58 389 28 384 q 24 384 16 383 z"},"2":{"x_min":0,"x_max":510,"ha":510,"o":"m 97 511 l 62 511 q 78 569 86 631 q 126 666 168 682 q 209 699 251 699 q 301 699 345 676 q 389 652 412 609 q 434 566 434 514 q 434 467 417 425 q 396 371 345 308 q 295 246 134 72 l 339 72 q 383 72 398 81 q 412 90 432 130 q 434 133 438 141 l 475 141 q 435 45 416 -5 q 317 0 239 0 q 168 0 23 -5 l 23 23 q 172 178 235 255 q 298 331 325 395 q 343 438 343 487 q 343 551 312 585 q 281 619 231 619 q 186 619 151 590 q 124 568 97 511 z"},"{":{"x_min":0,"x_max":479,"ha":479,"o":"m 411 -199 l 411 -216 q 329 -205 278 -150 q 227 -95 227 -26 q 227 7 238 54 q 250 101 250 125 q 250 162 220 192 q 190 223 138 229 l 138 250 q 190 256 220 287 q 250 317 250 354 q 250 378 238 425 q 227 472 227 505 q 227 573 278 628 q 329 684 411 694 l 411 677 q 353 663 327 632 q 300 602 300 562 q 300 536 311 488 q 322 440 322 409 q 322 359 286 312 q 250 266 178 241 q 249 214 285 167 q 322 120 322 70 q 322 38 311 -10 q 300 -57 300 -83 q 300 -123 327 -154 q 353 -185 411 -199 z"},"9":{"x_min":0,"x_max":510,"ha":510,"o":"m 98 -24 l 88 16 q 167 45 226 91 q 285 137 326 203 q 355 250 377 327 q 323 273 288 255 q 252 236 219 236 q 147 236 94 293 q 41 351 41 448 q 41 560 107 629 q 173 699 269 699 q 363 699 422 635 q 480 572 480 449 q 480 349 437 249 q 393 148 312 83 q 231 19 98 -24 z m 126 501 q 126 404 167 355 q 207 307 263 307 q 312 307 350 348 q 388 389 388 456 q 388 539 348 599 q 308 659 246 659 q 197 659 162 618 q 126 577 126 501 z"}," ":{"x_min":0,"x_max":255,"ha":255,"o":""},"I":{"x_min":0,"x_max":365,"ha":365,"o":"m 342 688 l 342 659 q 325 655 316 653 q 251 642 241 632 q 231 622 231 587 l 231 570 l 229 374 l 230 89 q 230 55 240 45 q 250 36 309 29 q 320 28 342 23 l 342 -5 q 263 0 190 0 q 115 0 25 -5 l 25 23 q 40 27 47 28 q 116 40 126 49 q 136 59 136 97 l 136 122 l 137 301 q 137 577 136 606 q 135 623 125 631 q 116 640 51 652 q 42 654 25 659 l 25 688 q 131 682 191 682 q 257 682 342 688 z"},"H":{"x_min":0,"x_max":802,"ha":802,"o":"m 579 375 l 578 410 l 578 515 l 577 606 q 576 626 571 631 q 563 640 533 644 l 467 659 l 467 688 q 580 682 630 682 q 685 682 783 688 l 783 659 q 702 642 692 638 q 682 633 678 628 q 673 619 672 574 q 671 501 671 323 l 673 92 l 673 78 q 673 55 682 49 q 695 39 783 23 l 783 -5 q 649 0 613 0 q 553 0 467 -5 l 467 23 l 556 43 q 564 47 569 53 q 576 63 576 92 l 579 321 q 450 324 382 324 q 308 324 226 321 l 228 85 q 228 60 232 53 q 237 46 258 41 q 263 39 338 23 l 338 -5 q 219 0 169 0 q 108 0 21 -5 l 21 23 q 74 35 100 40 q 120 43 125 50 q 132 58 132 84 q 134 178 134 351 l 132 593 l 132 608 q 132 625 126 632 q 121 639 103 643 l 21 659 l 21 688 q 120 682 186 682 q 255 682 338 688 l 338 659 l 256 643 q 240 639 234 632 q 229 625 229 606 l 226 375 q 301 374 385 374 q 493 374 579 375 z"},"4":{"x_min":0,"x_max":510,"ha":510,"o":"m 385 699 l 398 689 q 389 518 389 353 q 389 313 390 236 q 439 236 488 239 l 493 228 q 478 198 466 165 q 429 168 390 169 q 389 150 389 140 q 389 66 399 53 q 410 40 481 22 l 481 -5 q 406 0 352 0 q 296 0 215 -5 l 215 22 q 281 34 296 42 q 304 46 308 58 q 312 70 312 128 l 312 169 q 248 170 137 170 q 64 170 19 167 q 19 198 15 235 q 42 271 64 301 l 226 528 q 258 574 318 663 q 354 679 385 699 z m 312 236 l 312 573 l 78 236 z"},"~":{"x_min":0,"x_max":667,"ha":667,"o":"m 572 398 l 597 398 q 595 327 559 288 q 523 250 471 250 q 446 250 418 258 q 391 266 288 308 q 215 338 184 338 q 149 338 127 318 q 104 297 95 250 l 70 250 q 74 325 108 362 q 143 399 192 399 q 216 399 240 393 q 290 378 370 344 q 451 309 483 309 q 519 309 543 332 q 567 354 572 398 z"},"D":{"x_min":0,"x_max":813,"ha":813,"o":"m 23 659 l 23 688 q 120 682 234 682 l 452 685 q 562 685 629 653 q 695 621 731 551 q 768 481 768 389 q 768 218 652 106 q 536 -5 340 -5 q 329 -5 250 -2 q 172 0 159 0 q 111 0 23 -5 l 23 23 q 103 39 112 42 q 121 44 125 48 q 129 52 130 59 q 133 69 134 142 q 137 301 137 373 l 134 587 l 134 604 q 134 628 120 635 q 112 640 23 659 z m 232 53 q 311 43 365 43 q 448 43 502 70 q 580 109 620 185 q 661 261 661 371 q 661 429 647 476 q 634 524 611 552 q 579 594 526 616 q 473 639 374 639 q 313 639 232 631 q 229 503 229 340 q 229 168 232 53 z"},"^":{"x_min":0,"x_max":469,"ha":469,"o":"m 243 676 l 451 326 l 406 326 l 235 612 l 64 326 l 18 326 l 229 676 z"},"0":{"x_min":0,"x_max":510,"ha":510,"o":"m 37 321 q 37 525 112 622 q 172 699 268 699 q 328 699 375 667 q 422 634 450 562 q 478 491 478 371 q 478 253 453 158 q 428 63 368 16 q 322 -20 252 -20 q 143 -20 90 69 q 37 159 37 321 z m 134 348 q 134 247 143 187 q 152 126 171 88 q 190 50 210 35 q 230 20 259 20 q 293 20 319 42 q 345 64 364 126 q 382 188 382 310 q 382 422 365 523 q 357 568 343 599 q 328 629 308 644 q 287 659 255 659 q 225 659 204 644 q 184 629 168 599 q 157 577 149 532 q 134 455 134 348 z"},"F":{"x_min":0,"x_max":625,"ha":625,"o":"m 21 659 l 21 688 q 134 682 271 682 q 415 682 586 688 l 597 504 l 563 504 q 542 582 532 604 q 525 618 510 625 q 496 631 444 631 l 231 631 q 228 567 226 382 l 360 382 q 398 382 410 387 q 421 391 429 404 q 437 417 446 461 q 447 470 451 486 l 484 486 q 479 384 479 353 q 479 343 484 229 l 451 229 q 449 242 448 249 q 438 312 425 324 q 412 335 359 335 l 226 335 q 226 287 226 270 q 226 75 229 61 q 230 51 239 46 q 250 39 350 23 l 350 -5 q 240 0 191 0 l 21 -5 l 21 23 q 40 27 50 29 q 109 38 120 48 q 131 59 131 93 l 134 232 q 134 265 134 355 q 134 577 132 605 q 131 625 123 631 q 112 641 47 653 q 38 655 21 659 z"},"`":{"x_min":0,"x_max":333,"ha":333,"o":"m 196 526 q 129 613 58 688 l 65 697 q 109 696 113 696 q 130 696 164 697 q 192 616 225 526 z"},"k":{"x_min":0,"x_max":510,"ha":510,"o":"m 11 646 q 102 675 167 711 l 179 701 q 173 632 171 562 q 169 492 169 251 l 289 365 q 317 393 324 402 q 329 408 329 414 q 329 420 323 425 q 318 429 296 431 l 296 458 q 361 453 394 453 q 417 453 497 458 l 497 431 q 433 417 412 406 q 392 395 337 345 l 253 270 l 391 98 q 421 60 443 47 q 464 34 520 21 l 520 -5 q 453 0 417 0 q 393 0 296 -5 l 296 22 q 321 28 325 31 q 329 35 329 40 q 329 45 325 52 q 319 62 278 114 l 169 251 q 169 107 172 75 q 174 55 183 46 q 191 38 232 28 q 239 26 253 22 l 253 -5 q 179 0 143 0 q 118 0 16 -5 l 16 22 q 74 34 81 41 q 89 49 91 91 q 93 146 93 404 l 92 540 q 92 546 92 553 q 92 560 92 567 q 92 605 85 615 q 77 624 58 624 q 42 624 11 620 z"},"u":{"x_min":0,"x_max":552,"ha":552,"o":"m 3 416 l 3 443 q 92 448 167 465 l 179 456 q 169 371 169 250 q 169 146 176 116 q 182 87 204 71 q 226 54 257 54 q 292 54 323 73 q 354 92 366 122 q 378 151 378 212 q 378 219 375 376 q 373 397 363 405 q 353 412 308 415 l 290 416 l 290 443 q 395 451 453 465 l 466 456 q 461 415 459 354 q 457 293 457 212 q 457 110 462 91 q 468 72 490 72 q 502 72 541 78 l 541 51 q 491 38 456 24 q 422 10 383 -12 l 369 -1 q 375 35 376 71 q 318 17 290 2 q 261 -12 225 -12 q 158 -12 125 21 q 91 54 91 121 l 91 292 q 90 383 80 397 q 70 411 21 414 q 15 415 3 416 z"},"]":{"x_min":0,"x_max":323,"ha":323,"o":"m 28 -204 l 28 -157 l 144 -157 l 144 660 l 28 660 l 28 707 q 87 703 122 703 q 155 703 224 707 q 221 512 221 249 q 221 2 224 -204 q 151 -201 123 -201 q 91 -201 28 -204 z"},"U":{"x_min":0,"x_max":802,"ha":802,"o":"m 14 659 l 14 688 q 104 682 170 682 q 239 682 329 688 l 329 659 q 314 655 306 654 q 237 643 229 635 q 220 627 219 603 q 216 536 216 353 q 216 230 222 186 q 229 142 255 111 q 280 80 325 63 q 370 46 421 46 q 498 46 545 78 q 593 109 608 162 q 624 215 624 370 q 624 574 620 610 q 619 626 611 633 q 603 640 538 654 q 531 655 517 659 l 517 688 q 612 682 662 682 q 718 682 790 688 l 790 659 q 776 655 770 653 q 705 640 696 633 q 687 625 685 607 q 680 569 679 380 q 679 234 674 194 q 667 140 651 106 q 634 73 600 43 q 565 13 521 -1 q 462 -20 398 -20 q 327 -20 271 -2 q 215 15 185 45 q 154 75 139 116 q 124 157 124 234 l 125 456 q 125 580 125 595 q 123 619 117 627 q 113 634 105 638 q 100 641 38 653 q 30 654 14 659 z"},"o":{"x_min":0,"x_max":542,"ha":542,"o":"m 38 223 q 38 341 104 410 q 171 479 280 479 q 383 479 444 417 q 504 354 504 243 q 504 123 436 53 q 369 -17 261 -17 q 157 -17 97 45 q 38 108 38 223 z m 131 265 q 131 185 142 147 q 158 85 193 54 q 228 23 274 23 q 334 23 373 69 q 411 115 411 216 q 411 329 367 384 q 324 438 265 438 q 206 438 169 395 q 131 353 131 265 z"},"N":{"x_min":0,"x_max":813,"ha":813,"o":"m 0 659 l 0 688 q 62 682 97 682 q 126 682 200 688 l 339 514 q 358 491 633 158 q 633 227 633 257 q 633 330 629 523 q 627 614 624 622 q 622 629 613 636 q 604 642 545 653 q 537 655 522 659 l 522 688 q 609 682 660 682 q 710 682 798 688 l 798 659 q 785 655 778 654 q 713 641 706 636 q 700 633 697 627 q 692 620 690 598 q 689 589 688 465 q 686 341 686 226 q 686 89 691 -5 l 659 -20 l 456 233 l 188 554 l 191 266 q 193 76 196 63 q 198 55 205 48 q 216 39 278 28 q 285 27 300 23 l 300 -5 q 225 0 174 0 q 131 0 24 -5 l 24 23 q 41 27 50 29 q 108 40 118 48 q 123 53 125 63 q 130 86 132 233 q 134 442 134 480 q 134 603 131 617 q 129 626 118 633 q 107 640 26 653 q 17 655 0 659 z"},"+":{"x_min":0,"x_max":667,"ha":667,"o":"m 68 355 l 301 355 l 301 588 l 366 588 l 366 355 l 599 355 l 599 291 l 366 291 l 366 58 l 301 58 l 301 291 l 68 291 z"},"G":{"x_min":0,"x_max":823,"ha":823,"o":"m 809 352 l 809 325 l 734 307 q 723 304 717 298 q 712 292 710 282 q 706 260 706 172 q 706 119 710 29 q 688 25 618 9 q 525 -11 500 -14 q 453 -20 400 -20 q 228 -20 136 71 q 43 162 43 319 q 43 490 152 596 q 260 702 439 702 q 484 702 525 697 q 535 696 692 667 q 692 640 692 624 q 692 559 698 476 l 662 476 q 639 560 619 586 q 600 612 555 629 q 497 651 428 651 q 277 651 201 537 q 147 457 147 339 q 147 188 232 111 q 316 33 444 33 q 525 33 615 67 q 617 120 617 222 q 617 277 614 287 q 611 297 602 302 q 591 309 536 320 l 517 325 l 517 352 l 684 348 q 739 348 809 352 z"},"q":{"x_min":0,"x_max":521,"ha":521,"o":"m 443 474 l 460 464 q 452 427 451 398 q 448 342 448 117 q 448 -111 452 -145 q 453 -160 459 -165 q 470 -174 514 -183 q 520 -184 532 -188 l 532 -215 q 462 -209 417 -209 q 386 -209 280 -215 l 280 -188 l 308 -182 q 349 -173 359 -162 q 369 -150 369 -120 l 370 68 q 316 18 282 1 q 248 -15 208 -15 q 137 -15 87 42 q 37 99 37 201 q 37 332 130 414 q 200 474 278 474 q 303 474 333 465 q 363 457 400 440 q 422 454 443 474 z m 370 221 l 370 309 q 370 359 347 387 q 312 429 254 429 q 201 429 160 380 q 120 332 120 244 q 120 151 159 103 q 199 54 253 54 q 291 54 321 75 q 351 95 362 126 q 370 149 370 221 z"},"d":{"x_min":0,"x_max":542,"ha":542,"o":"m 290 622 l 290 648 q 342 664 366 673 q 390 683 447 712 l 459 703 q 449 589 449 281 q 449 110 453 90 q 458 71 482 71 q 497 71 534 77 l 534 51 q 432 21 376 -12 l 364 -3 q 370 34 371 70 q 310 15 281 1 q 253 -12 213 -12 q 139 -12 90 44 q 41 100 41 202 q 41 272 64 323 q 83 362 117 397 q 151 432 193 453 q 235 474 278 474 q 297 474 321 469 q 345 464 374 454 q 375 479 375 482 q 375 597 370 609 q 364 627 338 627 q 329 627 307 624 q 301 623 290 622 z m 374 243 q 374 339 369 354 q 361 384 331 404 q 301 424 256 424 q 201 424 162 378 q 123 332 123 243 q 123 151 162 103 q 202 55 257 55 q 293 55 324 76 q 354 97 364 126 q 374 156 374 243 z"},"1":{"x_min":0,"x_max":510,"ha":510,"o":"m 115 588 l 115 614 q 211 654 252 673 q 271 682 300 699 l 314 688 q 303 543 303 327 q 303 141 304 115 q 305 65 312 52 q 315 46 321 42 q 324 42 397 22 l 397 -5 q 296 0 250 0 q 196 0 125 -5 l 125 22 q 197 41 204 44 q 210 48 214 55 q 218 63 220 118 q 221 136 221 313 l 220 508 l 220 554 q 219 582 212 591 q 206 600 190 600 q 174 600 115 588 z"},"5":{"x_min":0,"x_max":510,"ha":510,"o":"m 449 688 l 456 679 q 434 642 416 602 q 320 606 242 606 l 187 606 q 172 548 155 488 q 262 488 335 442 q 438 377 438 249 q 438 173 402 113 q 367 52 299 16 q 230 -20 167 -20 q 118 -20 52 8 q 64 65 68 127 l 98 127 q 117 78 145 57 q 173 37 214 37 q 290 37 328 89 q 365 142 365 208 q 365 264 338 307 q 312 351 258 374 q 205 396 145 396 q 126 396 91 392 l 80 407 q 131 547 155 688 q 241 682 319 682 q 385 682 449 688 z"}}}
